<?xml version="1.0" encoding="iso-8859-1"?>
<!-- Uploaded to: SVG Repo, www.svgrepo.com, Generator: SVG Repo Mixer Tools -->
<svg version="1.1" id="Layer_1" xmlns="http://www.w3.org/2000/svg" xmlns:xlink="http://www.w3.org/1999/xlink" 
	 viewBox="0 0 512 512" xml:space="preserve">
<path style="fill:#EFEFEF;" d="M397.022,146.389L397.022,146.389c-18.56-12.995-44.14-8.485-57.135,10.074l-32.283,46.106V60.406
	c0-12.654-9.84-23.432-22.486-23.882c-13.276-0.472-24.189,10.15-24.189,23.322V33.709c0-12.888-10.448-23.337-23.337-23.337l0,0
	c-12.889,0-23.337,10.449-23.337,23.337v26.137c0-12.888-10.448-23.337-23.337-23.337l0,0c-12.888,0-23.337,10.449-23.337,23.337
	v32.67c0-12.888-10.448-23.337-23.337-23.337l0,0c-12.889,0-23.337,10.449-23.337,23.337l-0.484,141.423
	c-0.137,39.922,6.486,65.059,19.587,102.771l0,0h170.881c0,0,11.901-28.06,15.029-42.455c5.129-23.605,13.386-46.541,27.372-66.516
	l49.374-70.514C405.859,152.661,402.594,146.389,397.022,146.389z"/>
<rect x="139.941" y="336.711" style="fill:#747D8C;" width="171.14" height="82.977"/>
<polygon style="fill:#EFEFEF;" points="343.041,501.628 107.982,501.628 140.244,419.688 310.78,419.688 "/>
<g>
	<path style="fill:#231F20;" d="M412.331,145.307c-2.429-4.217-6.804-6.199-11.583-8.888c-23.003-14.407-53.615-8.388-69.357,14.095
		l-13.416,19.159V60.405c0-18.556-14.271-33.6-32.489-34.247c-5.078-0.178-10.017,0.751-14.534,2.695
		C268.591,12.558,254.529,0,237.591,0c-16.947,0-31.013,12.57-33.364,28.876c-4.086-1.763-8.585-2.739-13.311-2.739
		c-18.588,0-33.709,15.123-33.709,33.709v1.555c-3.993-1.67-8.373-2.593-12.965-2.593c-18.588,0-33.709,15.123-33.709,33.674
		l-0.484,141.423c-0.137,39.929,6.192,65.758,19.521,104.359v80.225l-31.238,79.339c-1.257,3.194-0.854,6.802,1.078,9.638
		c1.931,2.836,5.141,4.534,8.574,4.534h235.059c3.432,0,6.641-1.698,8.574-4.534c1.931-2.837,2.335-6.445,1.078-9.638
		l-31.238-79.339v-80.164c3.026-7.308,11.825-29.105,14.599-41.867c5.514-25.385,13.932-45.916,25.732-62.768l49.373-70.513
		C414.864,157.885,415.555,150.905,412.331,145.307z M300.709,367.827h-57.068c-5.727,0-10.372,4.644-10.372,10.372
		s4.645,10.372,10.372,10.372h57.068v20.744H150.313v-62.233h150.396L300.709,367.827L300.709,367.827z M123.213,491.256
		l24.093-61.196h23.764c-0.704,2.31-6.117,18.847-8.134,28.027c-1.23,5.596,2.31,11.127,7.905,12.356
		c0.75,0.165,1.498,0.244,2.235,0.244c4.765,0,9.056-3.304,10.12-8.148c1.793-8.164,8.099-27.428,9.451-32.478h22.491v30.252
		c0,5.729,4.645,10.372,10.372,10.372c5.728,0,10.372-4.644,10.372-10.372V430.06h22.491c1.353,5.049,7.658,24.313,9.451,32.478
		c1.063,4.845,5.355,8.148,10.12,8.148c0.737,0,1.486-0.079,2.235-0.244c5.596-1.229,9.135-6.762,7.905-12.356
		c-2.015-9.178-7.43-25.717-8.134-28.027h23.764l24.093,61.196H123.213z M344.792,221.791c-13.411,19.152-22.9,42.135-29.012,70.263
		c-2.023,9.312-8.259,25.412-11.841,34.285H147.412c-11.57-34.151-16.742-56.927-16.619-92.364l0.484-141.458
		c0-7.15,5.816-12.965,12.966-12.965c7.148,0,12.964,5.816,12.964,12.965l0,0l0,0v103.722c0,5.729,4.645,10.372,10.372,10.372
		c5.728,0,10.372-4.644,10.372-10.372V59.845c0-7.15,5.816-12.965,12.966-12.965c7.148,0,12.964,5.816,12.964,12.965v126.022
		c0,5.729,4.645,10.372,10.372,10.372c5.727,0,10.372-4.644,10.372-10.372V33.709c0-7.15,5.816-12.965,12.965-12.965
		s12.965,5.816,12.965,12.965v141.785c0,5.729,4.645,10.372,10.372,10.372c5.727,0,10.372-4.644,10.372-10.372V59.845
		c0-3.55,1.407-6.864,3.963-9.332c2.554-2.463,5.914-3.746,9.485-3.625c6.883,0.245,12.482,6.308,12.482,13.516v142.164
		c0,4.526,2.935,8.531,7.253,9.892c4.311,1.362,9.016-0.234,11.615-3.942l32.284-46.106c4.695-6.707,11.724-11.183,19.786-12.605
		c8.06-1.421,16.196,0.382,22.904,5.078c0.127,0.089,0.255,0.174,0.386,0.258L344.792,221.791z"/>
	<path style="fill:#231F20;" d="M206.302,388.572h2.074c5.727,0,10.372-4.644,10.372-10.372s-4.645-10.372-10.372-10.372h-2.074
		c-5.727,0-10.372,4.644-10.372,10.372S200.573,388.572,206.302,388.572z"/>
</g>
</svg>